<svg aria-hidden="true" style="position: absolute; width: 0; height: 0; overflow: hidden;" version="1.1" xmlns="http://www.w3.org/2000/svg" xmlns:xlink="http://www.w3.org/1999/xlink">
<defs>
<symbol id="icon-arrow-up-alt1" viewBox="0 0 32 32">
<path d="M16 32c8.836 0 16-7.164 16-16 0-8.837-7.164-16-16-16-8.837 0-16 7.163-16 16 0 8.836 7.163 16 16 16zM16 8l8 8h-6v8h-4v-8h-6l8-8z"></path>
</symbol>
<symbol id="icon-arrow-up" viewBox="0 0 32 32">
<path d="M20 32v-16l6 6 6-6-16-16-16 16 6 6 6-6v16z"></path>
</symbol>
<symbol id="icon-circle-up" viewBox="0 0 32 32">
<path d="M0 16c0 8.837 7.163 16 16 16s16-7.163 16-16-7.163-16-16-16-16 7.163-16 16zM29 16c0 7.18-5.82 13-13 13s-13-5.82-13-13 5.82-13 13-13 13 5.82 13 13z"></path>
<path d="M22.086 20.914l2.829-2.829-8.914-8.914-8.914 8.914 2.828 2.828 6.086-6.086z"></path>
</symbol>
<symbol id="icon-arrow-up-outline" viewBox="0 0 24 24">
<path d="M12 21c-1.654 0-3-1.346-3-3v-4.764c-1.143 1.024-3.025 0.979-4.121-0.115-1.17-1.169-1.17-3.073 0-4.242l7.121-7.121 7.121 7.121c1.17 1.169 1.17 3.073 0 4.242-1.094 1.095-2.979 1.14-4.121 0.115v4.764c0 1.654-1.346 3-3 3zM11 8.414v9.586c0 0.551 0.448 1 1 1s1-0.449 1-1v-9.586l3.293 3.293c0.379 0.378 1.035 0.378 1.414 0 0.391-0.391 0.391-1.023 0-1.414l-5.707-5.707-5.707 5.707c-0.391 0.391-0.391 1.023 0 1.414 0.379 0.378 1.035 0.378 1.414 0l3.293-3.293z"></path>
</symbol>
<symbol id="icon-chevrons-up" viewBox="0 0 24 24">
<path d="M17.707 10.293l-5-5c-0.391-0.391-1.024-0.391-1.414 0l-5 5c-0.391 0.391-0.391 1.024 0 1.414s1.024 0.391 1.414 0l4.293-4.293 4.293 4.293c0.391 0.391 1.024 0.391 1.414 0s0.391-1.024 0-1.414zM17.707 17.293l-5-5c-0.391-0.391-1.024-0.391-1.414 0l-5 5c-0.391 0.391-0.391 1.024 0 1.414s1.024 0.391 1.414 0l4.293-4.293 4.293 4.293c0.391 0.391 1.024 0.391 1.414 0s0.391-1.024 0-1.414z"></path>
</symbol>
<symbol id="icon-arrow-circle-up" viewBox="0 0 24 28">
<path d="M20.062 13.984c0-0.266-0.094-0.516-0.281-0.703l-7.078-7.078c-0.187-0.187-0.438-0.281-0.703-0.281s-0.516 0.094-0.703 0.281l-7.078 7.078c-0.187 0.187-0.281 0.438-0.281 0.703s0.094 0.516 0.281 0.703l1.422 1.422c0.187 0.187 0.438 0.281 0.703 0.281s0.516-0.094 0.703-0.281l2.953-2.953v7.844c0 0.547 0.453 1 1 1h2c0.547 0 1-0.453 1-1v-7.844l2.953 2.953c0.187 0.187 0.438 0.297 0.703 0.297s0.516-0.109 0.703-0.297l1.422-1.422c0.187-0.187 0.281-0.438 0.281-0.703zM24 14c0 6.625-5.375 12-12 12s-12-5.375-12-12 5.375-12 12-12 12 5.375 12 12z"></path>
</symbol>
<symbol id="icon-chevron-up" viewBox="0 0 28 28">
<path d="M26.297 20.797l-2.594 2.578c-0.391 0.391-1.016 0.391-1.406 0l-8.297-8.297-8.297 8.297c-0.391 0.391-1.016 0.391-1.406 0l-2.594-2.578c-0.391-0.391-0.391-1.031 0-1.422l11.594-11.578c0.391-0.391 1.016-0.391 1.406 0l11.594 11.578c0.391 0.391 0.391 1.031 0 1.422z"></path>
</symbol>
<symbol id="icon-arrow-outline-up" viewBox="0 0 20 20">
<path d="M10 0c5.523 0 10 4.477 10 10s-4.477 10-10 10v0c-5.523 0-10-4.477-10-10s4.477-10 10-10v0zM10 2c-4.418 0-8 3.582-8 8s3.582 8 8 8v0c4.418 0 8-3.582 8-8s-3.582-8-8-8v0zM12 10v5h-4v-5h-3l5-5 5 5h-3z"></path>
</symbol>
</defs>
</svg>
